:SAMPLES-PER-SECOND 30
:FULLY-SPECIFIED
:DEGREES
696
root  -35.0279 39.2058 22.1334 -179.48 -34.4946 169.942
RightUpLeg  -15.265 -9.19275 -2.43387
RightLeg  -0.464212 -37.041 8.81178
RightFoot  -0.192164 1.20126 -12.3531
RightToes  -4.65663e-010 0 -3.6325e-017
Spine  5.07439 -3.81438 -2.86481
Spine1  4.09188 -4.73057 2.24829
HEad  -11.4468 -8.24591 -1.86442
LeftShoulder1  8.17751 -12.0303 -45.9027
LeftArm  -19.3529 0.988035 -7.72028
LeftForeArm  23.1379 -33.2018 -6.02714
LeftHand  -0.244104 0.0205437 5.32207
RightShoulder  5.78191 9.12724 39.6559
RightArm  -10.1468 -22.1418 29.3361
RightForeArm  14.1882 3.08376 4.91751
RightHand  -0.906038 1.82207 -14.7086
LeftUpLeg  21.4098 13.5333 2.09405
LeftLeg  12.0615 12.7822 -2.57992
LeftFoot  -13.2252 -0.15435 -14.0386
LeftToes  -7.27628e-011 -1.6005e-012 -1.37987e-011
697
root  -35.9735 39.1567 20.7587 178.969 -32.4077 172.482
RightUpLeg  -17.1559 -12.4197 1.22016
RightLeg  8.7078 -32.1086 3.70377
RightFoot  -0.744254 1.63274 -17.5291
RightToes  -4.65663e-010 0 -3.6325e-017
Spine  3.64059 -3.85913 1.17388
Spine1  4.59099 -4.44964 1.52507
HEad  -10.694 -8.29416 -2.63396
LeftShoulder1  8.14571 -11.8528 -46.2614
LeftArm  -18.1777 4.1638 -9.52638
LeftForeArm  25.6529 -35.1139 -6.37264
LeftHand  -0.244104 0.0205437 5.32207
RightShoulder  5.7922 9.06025 39.9648
RightArm  -9.90092 -22.7085 28.7309
RightForeArm  14.582 3.58269 4.9561
RightHand  -0.867686 1.73584 -14.2623
LeftUpLeg  23.3182 22.8966 9.02513
LeftLeg  16.5574 2.72845 -0.608955
LeftFoot  -11.0892 0.135339 -20.2839
LeftToes  -7.27628e-011 -1.6005e-012 -1.37987e-011
698
root  -36.7789 39.1471 19.3699 177.74 -29.3638 174.762
RightUpLeg  -18.1669 -16.6888 5.86995
RightLeg  14.7069 -24.4392 -0.46669
RightFoot  -2.60129 1.44336 -18.8724
RightToes  -4.65663e-010 0 -3.6325e-017
Spine  2.71046 -3.53297 4.29087
Spine1  4.54499 -3.92092 1.43808
HEad  -9.47174 -7.91 -2.89032
LeftShoulder1  7.9577 -11.5405 -46.1258
LeftArm  -15.8565 7.88107 -12.0511
LeftForeArm  26.7201 -35.6474 -6.45134
LeftHand  -0.244104 0.0205437 5.32207
RightShoulder  5.77609 9.03911 39.9169
RightArm  -9.60107 -22.8916 28.7386
RightForeArm  14.5214 4.72452 5.14783
RightHand  -0.865328 1.85187 -14.0055
LeftUpLeg  21.3921 24.56 12.0796
LeftLeg  24.7805 1.97166 1.66711
LeftFoot  -4.46151 1.44383 -23.6682
LeftToes  -7.27628e-011 -1.6005e-012 -1.37987e-011
699
root  -37.4283 39.1305 18.0602 176.942 -26.6603 176.429
RightUpLeg  -17.7039 -18.0871 8.62372
RightLeg  18.1668 -20.3283 -2.49655
RightFoot  -5.11743 0.97341 -18.3358
RightToes  -4.65663e-010 0 -3.6325e-017
Spine  2.57398 -3.4219 5.97805
Spine1  4.15981 -3.73488 2.14032
HEad  -8.56984 -7.32468 -2.35592
LeftShoulder1  7.82201 -11.3302 -45.9773
LeftArm  -13.2105 11.4141 -14.4194
LeftForeArm  26.3322 -34.8701 -6.26999
LeftHand  -0.244104 0.0205437 5.32207
RightShoulder  5.75221 9.0575 39.6725
RightArm  -9.54399 -22.3841 29.4757
RightForeArm  13.9712 6.50558 5.42683
RightHand  -0.895264 2.12338 -13.9765
LeftUpLeg  15.2859 20.5203 11.4531
LeftLeg  36.0704 4.98769 4.20911
LeftFoot  6.89581 3.16053 -20.1338
LeftToes  -7.27628e-011 -1.6005e-012 -1.37987e-011
700
root  -37.9632 39.0185 16.9107 176.112 -24.864 178.087
RightUpLeg  -16.6654 -18.0072 10.1165
RightLeg  21.0521 -19.0693 -3.29994
RightFoot  -7.79262 0.503909 -17.7956
RightToes  -4.65663e-010 0 -3.6325e-017
Spine  2.94962 -3.76316 7.68191
Spine1  4.18813 -3.83714 2.78411
HEad  -8.38204 -7.15649 -1.2762
LeftShoulder1  7.92174 -11.4137 -46.3114
LeftArm  -10.622 13.7168 -16.1254
LeftForeArm  25.4204 -32.3174 -5.68025
LeftHand  -0.244104 0.0205437 5.32207
RightShoulder  5.77206 9.06377 39.8009
RightArm  -8.98661 -21.1453 30.3557
RightForeArm  12.3653 9.22056 5.84627
RightHand  -0.97454 2.57254 -14.361
LeftUpLeg  7.81934 15.6555 10.6221
LeftLeg  47.375 4.07446 5.06891
LeftFoot  16.2782 3.28507 -13.6051
LeftToes  -7.27628e-011 -1.6005e-012 -1.37987e-011
701
root  -38.4613 38.9918 15.7938 175.317 -22.6654 179.328
RightUpLeg  -14.7919 -16.2734 10.7555
RightLeg  22.7835 -19.0959 -3.47035
RightFoot  -9.9335 0.147824 -17.2853
RightToes  -4.65663e-010 0 -3.6325e-017
Spine  3.30987 -3.8747 9.53136
Spine1  4.71142 -3.54638 2.50528
HEad  -8.50491 -7.53226 -0.171027
LeftShoulder1  8.18099 -11.7169 -46.8917
LeftArm  -7.16451 14.6545 -17.5056
LeftForeArm  23.8901 -27.7162 -4.64769
LeftHand  -0.244104 0.0205437 5.32207
RightShoulder  5.86727 9.1011 40.3865
RightArm  -6.44484 -19.1671 31.0649
RightForeArm  9.63141 12.5382 6.08796
RightHand  -1.0629 2.97721 -14.9108
LeftUpLeg  1.35926 11.7483 10.2272
LeftLeg  56.075 2.23263 4.10278
LeftFoot  18.0606 2.43555 -9.63292
LeftToes  -7.27628e-011 -1.6005e-012 -1.37987e-011
702
root  -38.9313 39.1574 14.5963 174.998 -18.8519 179.341
RightUpLeg  -11.834 -13.4119 10.5114
RightLeg  22.717 -18.3557 -3.10173
RightFoot  -11.36 -0.0789767 -16.5438
RightToes  -4.65663e-010 0 -3.6325e-017
Spine  3.47585 -3.32214 10.4067
Spine1  5.20647 -2.61189 1.45921
HEad  -8.38017 -7.77727 0.617003
LeftShoulder1  8.40592 -12.02 -47.2503
LeftArm  -3.2359 15.403 -19.0271
LeftForeArm  21.7539 -22.0465 -3.91919
LeftHand  -0.244104 0.0205437 5.32207
RightShoulder  6.01298 9.27479 40.8661
RightArm  -2.28699 -16.4109 31.9517
RightForeArm  7.705 15.5605 5.87465
RightHand  -1.07994 3.02698 -15.0556
LeftUpLeg  -3.53224 10.1571 9.77534
LeftLeg  61.0254 1.85164 4.23543
LeftFoot  14.5628 1.75794 -8.03796
LeftToes  -7.27628e-011 -1.6005e-012 -1.37987e-011
703
root  -39.3466 39.3683 13.3783 175.163 -13.8653 178.5
RightUpLeg  -8.65698 -10.8499 9.66547
RightLeg  21.8171 -16.04 -2.13516
RightFoot  -12.5518 -0.25445 -15.9639
RightToes  -4.65663e-010 0 -3.6325e-017
Spine  3.60405 -2.54732 10.3691
Spine1  5.34348 -1.51689 0.297282
HEad  -7.93143 -7.34713 1.0156
LeftShoulder1  8.52726 -12.2038 -47.3742
LeftArm  -3.20296 17.05 -20.5972
LeftForeArm  22.385 -16.6607 -4.78236
LeftHand  -0.244104 0.0205437 5.32207
RightShoulder  6.13587 9.54596 40.833
RightArm  2.33124 -13.106 33.389
RightForeArm  7.34967 18.1205 5.35661
RightHand  -1.04726 2.90834 -14.8122
LeftUpLeg  -7.69075 9.70473 8.8776
LeftLeg  62.4845 2.63654 6.09261
LeftFoot  10.5386 1.23919 -6.72766
LeftToes  -7.27628e-011 -1.6005e-012 -1.37987e-011
704
root  -39.7129 39.5608 12.1744 175.526 -8.60515 177.55
RightUpLeg  -5.75154 -8.93051 8.49286
RightLeg  20.7019 -12.9277 -0.705886
RightFoot  -13.586 -0.402008 -15.7383
RightToes  -4.65663e-010 0 -3.6325e-017
Spine  3.73754 -1.91053 10.1811
Spine1  5.10371 -0.620169 -0.856326
HEad  -7.45786 -6.50033 1.07557
LeftShoulder1  8.59352 -12.2826 -47.5067
LeftArm  -6.17365 19.4904 -22.184
LeftForeArm  24.7475 -12.4155 -5.55642
LeftHand  -0.244104 0.0205437 5.32207
RightShoulder  6.17884 9.73974 40.4894
RightArm  6.82931 -9.8482 35.1111
RightForeArm  6.82942 21.0826 4.80193
RightHand  -1.05527 2.9831 -14.7931
LeftUpLeg  -11.5509 8.99076 7.66595
LeftLeg  61.1764 3.96259 8.32421
LeftFoot  7.59752 0.56844 -3.66144
LeftToes  -7.27628e-011 -1.6005e-012 -1.37987e-011
705
root  -40.0355 39.7753 10.9695 175.871 -3.23681 176.669
RightUpLeg  -2.94803 -7.42315 7.17976
RightLeg  19.2371 -9.28886 0.738117
RightFoot  -14.1987 -0.487954 -15.6254
RightToes  -4.65663e-010 0 -3.6325e-017
Spine  3.88439 -1.25855 10.1227
Spine1  4.71059 0.259049 -2.25114
HEad  -7.23588 -5.74682 0.912722
LeftShoulder1  8.62935 -12.2957 -47.6678
LeftArm  -8.42247 22.0614 -23.8985
LeftForeArm  26.2752 -9.63746 -5.42558
LeftHand  -0.244104 0.0205437 5.32207
RightShoulder  6.17349 9.78058 40.3161
RightArm  9.74172 -7.1126 36.3466
RightForeArm  6.16566 24.9762 4.96653
RightHand  -1.08988 3.02766 -15.1913
LeftUpLeg  -14.6526 8.21578 6.64074
LeftLeg  57.196 5.39488 9.45598
LeftFoot  4.51588 0.0810393 -0.809895
LeftToes  -7.27628e-011 -1.6005e-012 -1.37987e-011
706
root  -40.3186 39.986 9.7646 176.074 2.21757 175.708
RightUpLeg  -0.165685 -6.4811 5.62832
RightLeg  17.647 -4.76812 1.82468
RightFoot  -14.5991 -0.540248 -15.441
RightToes  -4.65663e-010 0 -3.6325e-017
Spine  4.06295 -0.496956 10.0111
Spine1  4.39631 1.24966 -3.8921
HEad  -7.35332 -5.20532 0.683367
LeftShoulder1  8.63496 -12.2749 -47.7631
LeftArm  -9.233 24.4369 -25.62
LeftForeArm  26.6094 -8.23917 -5.1804
LeftHand  -0.244104 0.0205437 5.32207
RightShoulder  6.20362 9.78318 40.5215
RightArm  10.8986 -4.95199 36.7976
RightForeArm  6.3239 29.4156 6.05216
RightHand  -1.05773 2.59245 -15.524
LeftUpLeg  -16.66 7.8829 6.02834
LeftLeg  50.3832 6.28256 8.53786
LeftFoot  1.66595 0.0608253 -0.653662
LeftToes  -7.27628e-011 -1.6005e-012 -1.37987e-011
707
root  -40.5793 40.1104 8.55637 176.203 7.17264 174.791
RightUpLeg  2.23731 -6.24881 3.81611
RightLeg  16.5928 0.17487 2.59823
RightFoot  -15.3105 -0.633185 -15.2013
RightToes  -4.65663e-010 0 -3.6325e-017
Spine  4.10049 0.139351 9.90087
Spine1  4.2208 2.0914 -5.51637
HEad  -7.71769 -4.81664 0.482704
LeftShoulder1  8.64905 -12.2723 -47.8499
LeftArm  -9.26081 26.525 -27.0881
LeftForeArm  25.7895 -7.87456 -5.21388
LeftHand  -0.244104 0.0205437 5.32207
RightShoulder  6.27146 9.83593 40.8272
RightArm  11.7062 -3.35508 36.9508
RightForeArm  7.01043 33.6816 7.09999
RightHand  -0.943226 1.77203 -15.3967
LeftUpLeg  -17.8138 7.53543 5.66964
LeftLeg  41.1351 6.1672 6.13322
LeftFoot  0.417337 0.191794 -1.87871
LeftToes  -7.27628e-011 -1.6005e-012 -1.37987e-011
708
root  -40.8106 40.1564 7.3271 176.408 11.1493 174.155
RightUpLeg  4.19539 -6.40231 2.00784
RightLeg  15.9746 4.59472 3.24065
RightFoot  -16.1754 -0.74712 -15.0197
RightToes  -4.65663e-010 0 -3.6325e-017
Spine  3.82304 0.526293 9.95061
Spine1  4.17214 2.6207 -6.99624
HEad  -8.13083 -4.65121 0.341155
LeftShoulder1  8.69908 -12.3226 -47.9757
LeftArm  -9.10118 28.152 -28.1454
LeftForeArm  24.5361 -8.06288 -5.38306
LeftHand  -0.244104 0.0205437 5.32207
RightShoulder  6.2817 9.85882 40.8233
RightArm  12.0042 -2.41603 37.2446
RightForeArm  8.40594 37.2206 8.01247
RightHand  -0.832373 1.11618 -14.9413
LeftUpLeg  -18.3731 7.29116 5.31985
LeftLeg  30.2084 5.28793 3.71994
LeftFoot  0.59607 0.310428 -2.99868
LeftToes  -7.27628e-011 -1.6005e-012 -1.37987e-011
709
root  -40.9872 40.193 6.07789 176.553 14.3812 173.692
RightUpLeg  6.25472 -6.59488 0.252872
RightLeg  15.0635 8.34169 3.6736
RightFoot  -16.6942 -0.815886 -14.9478
RightToes  -4.65663e-010 0 -3.6325e-017
Spine  3.48644 0.803403 9.90352
Spine1  4.20806 3.00691 -8.34253
HEad  -8.41876 -4.69385 0.288212
LeftShoulder1  8.74574 -12.3802 -48.0593
LeftArm  -9.03019 29.22 -28.7773
LeftForeArm  24.0318 -8.45956 -5.47202
LeftHand  -0.244104 0.0205437 5.32207
RightShoulder  6.19726 9.77559 40.5014
RightArm  12.2334 -2.08587 37.5779
RightForeArm  9.43623 39.8394 8.75157
RightHand  -0.775283 0.854985 -14.4938
LeftUpLeg  -18.1881 8.48449 4.76757
LeftLeg  18.3132 4.20061 1.62471
LeftFoot  1.47421 0.569836 -5.12784
LeftToes  -7.27628e-011 -1.6005e-012 -1.37987e-011
710
root  -41.1268 40.1799 4.79727 176.359 17.1808 173.226
RightUpLeg  8.63736 -6.83397 -1.64658
RightLeg  14.165 11.6778 3.85782
RightFoot  -17.3011 -0.885607 -14.6885
RightToes  -4.65663e-010 0 -3.6325e-017
Spine  3.50965 1.00007 9.59836
Spine1  4.16607 3.33284 -9.44619
HEad  -8.50889 -4.76521 0.314631
LeftShoulder1  8.75359 -12.383 -48.0944
LeftArm  -9.14837 29.725 -28.914
LeftForeArm  24.5563 -8.7767 -5.40678
LeftHand  -0.244104 0.0205437 5.32207
RightShoulder  6.10349 9.6511 40.2457
RightArm  12.7076 -2.10615 37.5659
RightForeArm  9.70439 41.2977 9.21066
RightHand  -0.750615 0.758056 -14.2528
LeftUpLeg  -17.1122 8.79785 4.93691
LeftLeg  7.04813 5.83344 -1.31915
LeftFoot  2.20265 0.991254 -8.47026
LeftToes  -7.27628e-011 -1.6005e-012 -1.37987e-011
